<?xml version="1.0" encoding="UTF-8"?>
<!-- Generator: visioncortex VTracer 0.6.3 -->
<svg version="1.1" xmlns="http://www.w3.org/2000/svg" width="1280" height="711">
<path d="M0 0 C9.22 0.13 18.27 1.78 27.31 3.44 C36.34 5.05 45.33 6.57 54.45 7.54 C58.33 8.04 62.16 8.74 66.01 9.46 C71.16 10.39 76.33 11.19 81.5 12 C83.61 12.33 85.73 12.67 87.84 13 C88.76 13.14 89.68 13.29 90.63 13.44 C93.51 13.92 96.38 14.43 99.25 14.96 C104.53 15.93 109.82 16.8 115.12 17.63 C116.07 17.78 117.03 17.93 118.01 18.08 C121.15 18.58 124.29 19.07 127.44 19.56 C128.53 19.73 129.62 19.91 130.75 20.08 C150.87 23.24 171 26.26 191.14 29.27 C208.75 31.9 226.35 34.59 243.92 37.49 C248.92 38.32 253.93 39.13 258.94 39.94 C260.4 40.17 260.4 40.17 261.89 40.41 C268.4 41.45 274.91 42.44 281.43 43.41 C282.26 43.53 283.1 43.65 283.96 43.78 C284.8 43.91 285.65 44.03 286.52 44.16 C301.07 46.32 315.58 48.55 330.07 51.11 C339.08 52.69 348.1 54.14 357.14 55.56 C359.55 55.94 361.95 56.32 364.36 56.7 C371.8 57.89 379.24 59.05 386.7 60.08 C390.02 60.54 393.35 61.03 396.67 61.53 C398.25 61.76 399.83 61.97 401.41 62.18 C413.68 63.75 413.68 63.75 417.02 66.91 C418.27 68.91 419.13 70.82 420 73 C420.66 73.66 421.32 74.32 422 75 C422.16 75.68 422.33 76.36 422.5 77.06 C422.66 77.7 422.83 78.34 423 79 C423.66 79.33 424.32 79.66 425 80 C425.33 80.99 425.66 81.98 426 83 C426.66 83.66 427.32 84.32 428 85 C428.5 86.18 428.99 87.35 429.5 88.56 C430.59 92.06 430.59 92.06 433 93 C433 93.99 433 94.98 433 96 C433.66 96.33 434.32 96.66 435 97 C436 99.33 437 101.67 438 104 C438.66 104.33 439.32 104.66 440 105 C441.38 107.8 442.57 110.66 443.78 113.53 C444.75 116.13 444.75 116.13 447 117 C447 117.99 447 118.98 447 120 C447.66 120.33 448.32 120.66 449 121 C449 121.99 449 122.98 449 124 C449.99 124.33 450.98 124.66 452 125 C452.67 127 453.33 129 454 131 C454.75 132.15 455.55 133.28 456.38 134.38 C463 143.2 463 143.2 463 148 C463.66 148 464.32 148 465 148 C465.23 148.7 465.45 149.4 465.69 150.12 C466.91 153.15 466.91 153.15 469.35 155.74 C472.06 158.92 473.86 162.29 475.69 166.06 C475.98 166.66 476.28 167.26 476.58 167.88 C478.2 171.2 479.68 174.55 481 178 C481.66 178 482.32 178 483 178 C483.67 179.29 484.34 180.58 485 181.88 C485.37 182.59 485.74 183.31 486.12 184.05 C487 186 487 186 487 188 C487.66 188 488.32 188 489 188 C490.76 191.09 491 192.23 491 196 C291.02 196.33 91.04 196.66 -115 197 C-113.42 193.05 -111.83 189.85 -109.66 186.24 C-108.66 184.57 -108.66 184.57 -107.64 182.87 C-107.29 182.29 -106.94 181.71 -106.58 181.11 C-101.44 172.57 -96.35 164 -91.56 155.25 C-88.01 148.77 -84.31 142.42 -80.48 136.1 C-77.47 131.13 -74.52 126.13 -71.56 121.12 C-71 120.18 -70.44 119.23 -69.87 118.25 C-68.24 115.5 -66.62 112.75 -65 110 C-64.56 109.25 -64.12 108.51 -63.67 107.74 C-59.61 100.86 -55.56 93.98 -51.55 87.07 C-40.03 67.25 -40.03 67.25 -34.84 59.07 C-33.21 56.34 -31.68 53.59 -30.16 50.79 C-27.21 45.34 -24.11 40.01 -20.94 34.69 C-19.81 32.78 -18.67 30.88 -17.54 28.97 C-16.68 27.51 -16.68 27.51 -15.79 26.02 C-13.95 22.92 -12.13 19.82 -10.3 16.72 C-9.41 15.2 -9.41 15.2 -8.5 13.66 C-7.35 11.7 -6.2 9.75 -5.05 7.79 C-4.28 6.48 -4.28 6.48 -3.48 5.14 C-2.8 3.97 -2.8 3.97 -2.1 2.78 C-1 1 -1 1 0 0 Z " fill="#093B6A" transform="translate(451,320)"/>
<path d="M0 0 C0.33 0.99 0.66 1.98 1 3 C1.66 3 2.32 3 3 3 C3 3.66 3 4.32 3 5 C3.66 5 4.32 5 5 5 C6.76 8.09 7 9.23 7 13 C7.99 13.33 8.98 13.66 10 14 C10 14.99 10 15.98 10 17 C10.66 17.33 11.32 17.66 12 18 C12.31 18.95 12.62 19.9 12.94 20.88 C13.99 23.97 14.69 24.88 17 27 C19 30.47 19 30.47 19 33 C19.66 33.33 20.32 33.66 21 34 C22.99 36.73 24.72 39.27 25.94 42.44 C27.2 45.49 28.97 47.84 30.98 50.45 C32 52 32 52 32 54 C32.66 54.33 33.32 54.66 34 55 C37 60.42 37 60.42 37 63 C37.99 63.33 38.98 63.66 40 64 C41.75 67.57 43.22 71.09 44 75 C44.66 75 45.32 75 46 75 C49 80.62 49 80.62 49 84 C49.99 84.33 50.98 84.66 52 85 C52.7 86.99 53.37 88.99 54 91 C54.66 91.33 55.32 91.66 56 92 C56.34 93.33 56.68 94.66 57 96 C57.66 96.66 58.32 97.32 59 98 C59.62 100.63 59.62 100.63 60 103 C60.66 103 61.32 103 62 103 C62 103.66 62 104.32 62 105 C62.66 105 63.32 105 64 105 C64.62 106.86 64.62 106.86 65.25 108.75 C66.59 112.37 68.16 114.35 71 117 C71.72 118.64 72.39 120.31 73 122 C73.99 123.48 73.99 123.48 75 125 C75 125.66 75 126.32 75 127 C75.66 127.33 76.32 127.66 77 128 C78.42 130.31 79.72 132.62 81 135 C81.81 136.5 81.81 136.5 82.64 138.04 C83.85 140.28 85.05 142.52 86.26 144.76 C88.53 148.98 88.53 148.98 90.81 153.19 C91.19 153.88 91.57 154.58 91.96 155.29 C93.01 157.17 93.01 157.17 95 159 C99 165.19 99 165.19 99 168 C99.66 168.33 100.32 168.66 101 169 C101.62 171.56 101.62 171.56 102 174 C61.54 187.57 21 200.81 -19.75 213.49 C-35.67 218.44 -51.59 223.43 -67.44 228.62 C-83.5 233.89 -99.61 239.03 -115.73 244.13 C-117.67 244.75 -119.62 245.36 -121.56 245.98 C-125.19 247.13 -128.82 248.28 -132.45 249.42 C-133.54 249.77 -134.64 250.12 -135.76 250.47 C-136.78 250.79 -137.79 251.11 -138.83 251.44 C-139.72 251.72 -140.6 252 -141.5 252.28 C-143.99 253 -146.46 253.53 -149 254 C-147.53 250.03 -145.65 246.52 -143.51 242.87 C-143.17 242.29 -142.82 241.71 -142.47 241.11 C-141.36 239.22 -140.24 237.33 -139.12 235.44 C-138.35 234.12 -137.57 232.79 -136.79 231.47 C-132.09 223.49 -127.33 215.55 -122.54 207.62 C-117.81 199.77 -113.29 191.8 -108.76 183.84 C-104.28 175.97 -99.75 168.14 -95.05 160.39 C-92.78 156.63 -90.54 152.85 -88.31 149.06 C-87.9 148.36 -87.49 147.66 -87.07 146.94 C-84.64 142.81 -82.23 138.68 -79.82 134.54 C-78.67 132.57 -77.52 130.6 -76.38 128.62 C-75.79 127.61 -75.2 126.6 -74.59 125.56 C-70.12 117.9 -65.6 110.26 -61.06 102.62 C-55.81 93.79 -50.62 84.91 -45.5 76 C-38.37 63.58 -31.08 51.27 -23.76 38.96 C-21.37 34.94 -18.99 30.91 -16.62 26.88 C-16.24 26.22 -15.86 25.57 -15.46 24.9 C-13.38 21.36 -11.31 17.81 -9.24 14.26 C-8.78 13.48 -8.33 12.69 -7.85 11.88 C-6.97 10.37 -6.1 8.86 -5.22 7.35 C-3.64 4.65 -2.22 2.22 0 0 Z " fill="#093A69" transform="translate(639,0)"/>
<path d="M0 0 C1.37 0.01 2.73 0.02 4.1 0.04 C4.79 0.04 5.47 0.04 6.18 0.05 C8.03 0.06 9.88 0.08 11.73 0.1 C12.72 0.1 13.71 0.1 14.73 0.1 C14.73 9.67 14.73 19.24 14.73 29.1 C23.97 29.1 33.21 29.1 42.73 29.1 C42.73 19.53 42.73 9.96 42.73 0.1 C46.66 0.07 46.66 0.07 50.66 0.04 C51.49 0.03 52.32 0.02 53.17 0.01 C55.02 0 56.87 0.05 58.73 0.1 C59.73 1.1 59.73 1.1 59.85 3.99 C59.84 5.28 59.84 6.58 59.84 7.91 C59.84 8.62 59.84 9.34 59.84 10.07 C59.84 12.43 59.83 14.8 59.82 17.16 C59.82 18.8 59.82 20.43 59.82 22.07 C59.82 26.38 59.81 30.69 59.8 35.01 C59.79 39.4 59.78 43.8 59.78 48.2 C59.76 56.83 59.75 65.46 59.73 74.1 C54.78 74.59 54.78 74.59 49.73 75.1 C49.73 75.43 49.73 75.76 49.73 76.1 C47.09 76.1 44.45 76.1 41.73 76.1 C41.53 65.4 42.15 54.78 42.73 44.1 C33.16 44.1 23.59 44.1 13.73 44.1 C13.4 54 13.07 63.9 12.73 74.1 C4.81 74.59 4.81 74.59 -3.27 75.1 C-4.74 72.16 -4.4 69.56 -4.4 66.28 C-4.41 65.23 -4.41 65.23 -4.41 64.15 C-4.41 61.83 -4.41 59.51 -4.41 57.19 C-4.41 55.58 -4.41 53.97 -4.41 52.36 C-4.41 48.99 -4.41 45.61 -4.4 42.24 C-4.4 37.91 -4.4 33.57 -4.41 29.24 C-4.41 25.92 -4.41 22.59 -4.41 19.27 C-4.41 17.67 -4.41 16.07 -4.41 14.48 C-4.41 12.25 -4.41 10.02 -4.4 7.79 C-4.4 6.52 -4.4 5.25 -4.4 3.94 C-4.22 -0.12 -4.13 0.12 0 0 Z M14.73 42.1 C14.73 42.43 14.73 42.76 14.73 43.1 C23.31 43.1 31.89 43.1 40.73 43.1 C40.73 42.77 40.73 42.44 40.73 42.1 C32.15 42.1 23.57 42.1 14.73 42.1 Z " fill="#0E3E6C" transform="translate(1135.2734375,634.90234375)"/>
<path d="M0 0 C2.46 -0.03 4.92 -0.05 7.38 -0.06 C8.07 -0.07 8.77 -0.08 9.49 -0.09 C14.77 -0.11 14.77 -0.11 17 1 C17.49 15.36 17.49 15.36 18 30 C18.66 30 19.32 30 20 30 C21.52 28.2 22.92 26.4 24.31 24.5 C28.45 18.99 32.71 13.59 37.06 8.25 C37.63 7.55 38.21 6.84 38.8 6.12 C42.85 1.15 42.85 1.15 44 0 C46.66 -0.13 49.28 -0.19 51.94 -0.19 C53.05 -0.21 53.05 -0.21 54.19 -0.22 C56.13 -0.23 58.06 -0.12 60 0 C60.66 0.66 61.32 1.32 62 2 C61.26 2.86 60.52 3.72 59.76 4.61 C57.06 7.75 54.37 10.89 51.68 14.04 C50.59 15.31 49.51 16.57 48.42 17.84 C46.94 19.56 45.47 21.28 44 23 C43.56 23.51 43.11 24.03 42.66 24.56 C39.81 27.9 37.36 31.32 35 35 C36.04 37.25 37.09 39.11 38.62 41.06 C40 43 40 43 40 46 C40.99 46.33 41.98 46.66 43 47 C43 47.66 43 48.32 43 49 C43.99 49.5 43.99 49.5 45 50 C46.02 50.98 47.02 51.98 48 53 C48.83 53.78 49.65 54.57 50.5 55.38 C53 58 53 58 54.38 60.31 C56.37 63.61 58.84 66.23 61.48 69.04 C63.05 71.07 63.59 72.48 64 75 C61.46 75.05 58.92 75.09 56.38 75.12 C55.66 75.14 54.95 75.16 54.21 75.18 C49.78 75.22 46.1 74.9 42 73 C41.67 72.01 41.34 71.02 41 70 C39.85 68.85 38.7 67.7 37.52 66.57 C34.35 63.3 31.66 59.61 28.88 56 C28.25 55.21 27.63 54.41 27 53.59 C24.08 49.83 21.45 46.09 19 42 C18.34 41.67 17.68 41.34 17 41 C17 52.22 17 63.44 17 75 C11.72 75 6.44 75 1 75 C-0.17 71.49 -0.12 68.75 -0.11 65.05 C-0.11 64.35 -0.11 63.64 -0.11 62.92 C-0.11 60.6 -0.11 58.28 -0.1 55.96 C-0.1 54.35 -0.09 52.74 -0.09 51.13 C-0.09 46.89 -0.08 42.65 -0.07 38.42 C-0.06 34.09 -0.05 29.77 -0.05 25.45 C-0.04 16.96 -0.02 8.48 0 0 Z " fill="#0A3B6A" transform="translate(1047,635)"/>
<path d="M0 0 C7.38 -0.02 14.76 -0.04 22.14 -0.05 C25.57 -0.06 28.99 -0.06 32.42 -0.08 C36.36 -0.09 40.3 -0.09 44.24 -0.1 C45.47 -0.1 46.7 -0.11 47.97 -0.11 C49.11 -0.11 50.25 -0.11 51.43 -0.11 C52.43 -0.12 53.44 -0.12 54.48 -0.12 C57 0 57 0 60 1 C60 4.96 60 8.92 60 13 C49.11 13 38.22 13 27 13 C28.32 14.65 29.64 16.3 31 18 C31.69 19.66 32.36 21.32 33 23 C33.66 23.66 34.32 24.32 35 25 C35.93 26.24 36.82 27.52 37.69 28.81 C38.37 29.81 38.37 29.81 39.07 30.83 C40.29 33.67 39.78 35.04 39 38 C38 40.14 38 40.14 36.79 42.25 C36.35 43.02 35.91 43.8 35.46 44.59 C34.77 45.78 34.77 45.78 34.06 47 C33.15 48.58 32.25 50.17 31.35 51.75 C30.95 52.45 30.54 53.14 30.13 53.86 C28.92 56.16 27.97 58.59 27 61 C37.89 61 48.78 61 60 61 C60 65.29 60 69.58 60 74 C60.99 74 61.98 74 63 74 C63 74.66 63 75.32 63 76 C56.06 76.03 49.12 76.04 42.17 76.05 C39.81 76.06 37.45 76.07 35.09 76.08 C31.7 76.09 28.3 76.09 24.91 76.1 C23.85 76.1 22.79 76.11 21.7 76.11 C20.72 76.11 19.74 76.11 18.73 76.11 C17.86 76.12 16.99 76.12 16.1 76.12 C14 76 14 76 12 75 C9.96 74.93 7.92 74.92 5.88 74.94 C4.78 74.95 3.68 74.96 2.55 74.96 C1.29 74.98 1.29 74.98 0 75 C-1 72 -1 72 0.17 69.52 C0.76 68.56 1.36 67.59 1.97 66.59 C2.63 65.52 3.28 64.44 3.95 63.34 C4.65 62.2 5.36 61.07 6.06 59.94 C6.73 58.84 7.4 57.75 8.09 56.62 C8.75 55.54 9.42 54.45 10.1 53.34 C10.75 52.27 11.4 51.2 12.07 50.1 C13.32 48.09 14.6 46.1 15.91 44.14 C16.47 43.27 17.04 42.4 17.62 41.5 C18.13 40.75 18.64 40 19.16 39.22 C20.25 36.99 20.25 36.99 19.35 34.54 C17.93 31.87 16.41 29.34 14.74 26.8 C14.12 25.84 13.49 24.88 12.85 23.89 C11.53 21.87 10.2 19.85 8.88 17.84 C8.26 16.88 7.63 15.92 6.99 14.93 C6.42 14.06 5.84 13.18 5.25 12.28 C4 10 4 10 4 7 C3.34 7 2.68 7 2 7 C0 4 0 4 0 0 Z " fill="#0F3E6C" transform="translate(1217,635)"/>
<path d="M0 0 C2 2 2 2 2 6 C2.95 5.94 3.9 5.88 4.88 5.81 C14.22 5.87 23.02 9.97 29.57 16.58 C30.77 18 31.89 19.5 33 21 C33.58 21.66 34.15 22.32 34.75 23 C38.48 28.96 37.64 38.27 37 45 C34.53 53.54 29.02 59.06 21.5 63.47 C14.56 66.94 7.67 68.18 0 69 C0 71.31 0 73.62 0 76 C-2.64 76 -5.28 76 -8 76 C-8.33 74.02 -8.66 72.04 -9 70 C-9.74 69.84 -10.48 69.68 -11.24 69.52 C-17.77 68.02 -23.6 66.04 -29.62 63.09 C-31.89 61.93 -31.89 61.93 -34.09 61.61 C-39.12 60 -42.33 53.1 -44.94 48.81 C-47.02 41.36 -47.51 32.04 -44.14 24.86 C-37.97 14.82 -29 9.09 -17.65 6.12 C-15.1 5.65 -12.58 5.26 -10 5 C-9.81 4.04 -9.81 4.04 -9.62 3.06 C-9.42 2.38 -9.21 1.7 -9 1 C-5.99 -0.51 -3.32 -0.18 0 0 Z M0 13 C-0.05 19.21 -0.09 25.42 -0.11 31.63 C-0.12 33.75 -0.13 35.86 -0.15 37.97 C-0.18 41.01 -0.19 44.05 -0.2 47.08 C-0.21 48.03 -0.22 48.98 -0.23 49.95 C-0.23 50.83 -0.23 51.71 -0.23 52.62 C-0.23 53.4 -0.24 54.17 -0.24 54.97 C-0.12 57.31 -0.12 57.31 2 60 C9.62 59.69 16.03 58.71 21.76 53.36 C26.96 47.58 28.47 42.53 28.32 34.79 C27.69 29.28 25.59 25.43 21.5 21.75 C20.68 21.17 19.85 20.6 19 20 C18.38 19.3 17.76 18.6 17.12 17.88 C12.74 14.01 7.61 13.87 2 14 C1.34 13.67 0.68 13.34 0 13 Z M-28 19 C-30.44 21.1 -32.3 23.27 -34 26 C-34.56 26.88 -34.56 26.88 -35.13 27.79 C-36.34 30.87 -36.3 33.57 -36.31 36.88 C-36.33 38.07 -36.35 39.26 -36.36 40.49 C-35.86 45.31 -34.43 48.52 -31.05 52.01 C-23.8 57.59 -18.21 60 -9 60 C-9 45.15 -9 30.3 -9 15 C-17.1 13.84 -21.05 15.05 -28 19 Z M-37 35 C-36 38 -36 38 -36 38 Z " fill="#0F3D6B" transform="translate(323,634)"/>
<path d="M0 0 C2 0 2 0 3.46 1.1 C5.55 3.68 6.44 6.33 7.56 9.44 C8.89 13.07 10.25 16.55 12 20 C12.14 20.68 12.29 21.36 12.44 22.06 C12.85 24.08 12.85 24.08 14.43 25.34 C16.3 27.32 16.88 28.97 17.69 31.56 C17.94 32.35 18.19 33.13 18.45 33.94 C19 36 19 36 19 38 C19.99 38.5 19.99 38.5 21 39 C22.22 41.59 22.99 43.93 23.5 46.75 C23.75 47.86 23.75 47.86 24 49 C24.99 49.5 24.99 49.5 26 50 C26.71 51.65 27.37 53.32 28 55 C28.52 55.99 29.03 56.98 29.56 58 C30.88 60.76 31.42 63.03 32 66 C32.66 66.66 33.32 67.32 34 68 C34 68.66 34 69.32 34 70 C34.66 70.66 35.32 71.32 36 72 C36.12 74.62 36.12 74.62 36 77 C22.58 77.91 22.58 77.91 19 75.84 C17.14 73.56 16 71 14.78 68.34 C13.18 65.73 13.18 65.73 10.18 65.34 C9.07 65.32 7.95 65.31 6.8 65.29 C5.59 65.26 4.38 65.23 3.14 65.21 C1.88 65.2 0.61 65.19 -0.69 65.19 C-2.6 65.15 -2.6 65.15 -4.55 65.11 C-7.7 65.05 -10.85 65.02 -14 65 C-14.29 65.92 -14.29 65.92 -14.59 66.86 C-14.85 67.67 -15.11 68.48 -15.38 69.31 C-15.76 70.51 -15.76 70.51 -16.15 71.74 C-17 74 -17 74 -19 77 C-21.63 77.22 -24.01 77.28 -26.62 77.19 C-27.33 77.17 -28.04 77.16 -28.77 77.15 C-30.51 77.11 -32.26 77.06 -34 77 C-35.3 73.1 -34.4 72.02 -32.72 68.33 C-32.21 67.2 -31.7 66.06 -31.18 64.9 C-30.62 63.68 -30.06 62.47 -29.5 61.25 C-28.94 60.01 -28.38 58.77 -27.82 57.53 C-26.22 54.02 -24.61 50.51 -23 47 C-22.62 46.18 -22.24 45.35 -21.85 44.5 C-19.93 40.32 -17.97 36.16 -16 32 C-15.43 30.78 -14.87 29.56 -14.3 28.33 C-11.17 21.55 -7.96 14.81 -4.62 8.12 C-4.28 7.43 -3.93 6.73 -3.58 6.01 C-1.12 1.12 -1.12 1.12 0 0 Z M-1 34 C-2.2 36.58 -3.39 39.16 -4.56 41.75 C-4.9 42.48 -5.25 43.21 -5.6 43.96 C-5.92 44.67 -6.24 45.38 -6.57 46.11 C-6.86 46.76 -7.16 47.41 -7.47 48.08 C-8.26 50.34 -8.26 50.34 -7 54 C-1.72 54 3.56 54 9 54 C6.97 47.36 4.59 40.98 1 35 C0.34 34.67 -0.32 34.34 -1 34 Z " fill="#0D3C6A" transform="translate(803,633)"/>
<path d="M0 0 C1.16 0 2.32 0 3.52 0 C4.77 0.01 6.02 0.02 7.32 0.03 C8.6 0.03 9.88 0.04 11.2 0.04 C14.61 0.05 18.02 0.07 21.43 0.09 C24.91 0.11 28.39 0.12 31.86 0.13 C38.69 0.15 45.51 0.19 52.34 0.23 C52.34 4.85 52.34 9.47 52.34 14.23 C45.41 14.23 38.48 14.23 31.34 14.23 C31.34 35.02 31.34 55.81 31.34 77.23 C25.73 76.57 20.12 75.91 14.34 75.23 C13.02 72.59 13.22 70.63 13.22 67.68 C13.22 66.51 13.22 65.35 13.22 64.16 C13.23 62.9 13.23 61.64 13.24 60.34 C13.24 59.06 13.24 57.78 13.24 56.45 C13.25 53.04 13.26 49.62 13.27 46.2 C13.28 42.72 13.28 39.23 13.29 35.75 C13.3 28.91 13.31 22.07 13.34 15.23 C6.08 14.9 -1.18 14.57 -8.66 14.23 C-8.96 5.05 -8.96 5.05 -8.66 2.23 C-5.24 -0.06 -4.03 -0.02 0 0 Z " fill="#093B6A" transform="translate(853.664794921875,633.77294921875)"/>
<path d="M0 0 C1.16 0 2.32 0 3.52 0 C4.77 0.01 6.02 0.02 7.32 0.03 C8.6 0.03 9.88 0.04 11.2 0.04 C14.61 0.05 18.02 0.07 21.43 0.09 C24.91 0.11 28.39 0.12 31.86 0.13 C38.69 0.15 45.51 0.19 52.34 0.23 C52.34 4.85 52.34 9.47 52.34 14.23 C45.41 14.23 38.48 14.23 31.34 14.23 C31.35 16.98 31.35 16.98 31.37 19.79 C31.4 25.86 31.42 31.92 31.44 37.98 C31.45 41.66 31.46 45.34 31.49 49.01 C31.51 52.56 31.52 56.11 31.52 59.65 C31.53 61.01 31.54 62.36 31.55 63.72 C31.56 65.61 31.56 67.51 31.56 69.4 C31.57 70.48 31.57 71.56 31.58 72.67 C31.34 75.23 31.34 75.23 29.34 77.23 C27.66 76.91 26 76.57 24.34 76.23 C21 76.13 17.67 76.17 14.34 76.23 C13.01 73.57 13.22 71.56 13.22 68.58 C13.22 67.4 13.22 66.22 13.22 65 C13.23 63.72 13.23 62.44 13.24 61.13 C13.24 59.82 13.24 58.51 13.24 57.17 C13.25 53.69 13.26 50.21 13.27 46.74 C13.28 43.19 13.28 39.65 13.29 36.1 C13.3 29.14 13.31 22.19 13.34 15.23 C6.08 14.9 -1.18 14.57 -8.66 14.23 C-8.96 5.05 -8.96 5.05 -8.66 2.23 C-5.24 -0.06 -4.03 -0.02 0 0 Z " fill="#0B3C6A" transform="translate(928.664794921875,633.77294921875)"/>
<path d="M0 0 C1.35 -0 1.35 -0 2.72 -0.01 C4.17 0 4.17 0 5.65 0.01 C7.13 0.01 7.13 0.01 8.65 0.01 C10.75 0.02 12.85 0.02 14.94 0.04 C18.16 0.06 21.39 0.06 24.61 0.06 C26.64 0.06 28.67 0.07 30.71 0.07 C32.16 0.08 32.16 0.08 33.65 0.08 C34.54 0.08 35.43 0.09 36.35 0.1 C37.14 0.1 37.92 0.11 38.74 0.11 C40.54 0.24 40.54 0.24 41.54 1.24 C41.67 4.74 41.67 4.74 41.54 8.24 C40.54 9.24 40.54 9.24 36.94 9.36 C35.34 9.36 33.74 9.35 32.13 9.34 C31.29 9.34 30.45 9.34 29.58 9.34 C26.88 9.33 24.18 9.32 21.48 9.31 C19.66 9.3 17.83 9.3 16 9.29 C11.52 9.28 7.03 9.26 2.54 9.24 C2.87 16.83 3.2 24.42 3.54 32.24 C15.09 32.24 26.64 32.24 38.54 32.24 C38.54 34.88 38.54 37.52 38.54 40.24 C26.66 40.57 14.78 40.9 2.54 41.24 C2.54 49.82 2.54 58.4 2.54 67.24 C6.84 67.32 6.84 67.32 11.22 67.39 C13.99 67.45 16.76 67.5 19.52 67.56 C21.45 67.6 23.38 67.63 25.3 67.66 C28.07 67.71 30.83 67.77 33.6 67.83 C34.46 67.84 35.33 67.85 36.22 67.86 C42.32 68.02 42.32 68.02 44.54 70.24 C44.67 73.37 44.67 73.37 44.54 76.24 C37.3 76.13 30.05 76 22.81 75.87 C20.34 75.83 17.88 75.79 15.41 75.75 C11.87 75.69 8.34 75.62 4.8 75.56 C3.69 75.54 2.58 75.53 1.43 75.51 C-0.1 75.48 -0.1 75.48 -1.66 75.45 C-3.02 75.42 -3.02 75.42 -4.4 75.4 C-6.46 75.24 -6.46 75.24 -7.46 74.24 C-7.57 72.01 -7.6 69.78 -7.62 67.55 C-7.62 66.85 -7.63 66.15 -7.63 65.43 C-7.65 63.11 -7.65 60.79 -7.66 58.47 C-7.66 56.86 -7.67 55.25 -7.68 53.64 C-7.69 50.27 -7.69 46.89 -7.7 43.52 C-7.7 39.18 -7.73 34.85 -7.75 30.52 C-7.77 27.2 -7.78 23.87 -7.78 20.55 C-7.78 18.95 -7.79 17.36 -7.8 15.76 C-7.82 13.53 -7.82 11.3 -7.81 9.06 C-7.82 7.79 -7.82 6.52 -7.82 5.21 C-7.7 4.23 -7.58 3.25 -7.46 2.24 C-4.31 0.14 -3.59 -0.01 0 0 Z " fill="#093B6A" transform="translate(393.45556640625,633.757080078125)"/>
<path d="M0 0 C1.35 0 1.35 0 2.73 0 C3.7 0.01 4.67 0.01 5.67 0.02 C7.16 0.02 7.16 0.02 8.68 0.02 C11.86 0.03 15.04 0.04 18.22 0.05 C20.37 0.06 22.52 0.06 24.68 0.06 C29.96 0.08 35.25 0.09 40.53 0.11 C41.89 2.85 41.66 5.1 41.53 8.11 C40.53 9.11 40.53 9.11 36.93 9.23 C35.32 9.23 33.72 9.22 32.12 9.21 C31.28 9.21 30.43 9.21 29.57 9.21 C26.87 9.2 24.17 9.19 21.47 9.18 C19.64 9.17 17.81 9.17 15.99 9.16 C11.5 9.15 7.01 9.13 2.53 9.11 C2.86 16.7 3.19 24.29 3.53 32.11 C15.08 32.11 26.63 32.11 38.53 32.11 C38.53 34.75 38.53 37.39 38.53 40.11 C26.65 40.44 14.77 40.77 2.53 41.11 C2.67 45.22 2.82 49.32 2.97 53.55 C3.01 54.85 3.05 56.14 3.1 57.48 C3.13 58.49 3.17 59.5 3.21 60.55 C3.25 61.59 3.29 62.63 3.32 63.71 C3.26 66.06 3.26 66.06 4.53 67.11 C7.41 67.27 10.27 67.37 13.16 67.43 C14.45 67.46 14.45 67.46 15.78 67.49 C18.55 67.56 21.32 67.62 24.09 67.68 C25.97 67.72 27.84 67.76 29.71 67.81 C34.32 67.91 38.92 68.02 43.53 68.11 C43.53 70.42 43.53 72.73 43.53 75.11 C36.59 75.28 29.65 75.44 22.7 75.6 C20.34 75.65 17.98 75.7 15.61 75.76 C12.22 75.84 8.83 75.92 5.44 75.99 C4.38 76.02 3.32 76.05 2.23 76.07 C0.75 76.1 0.75 76.1 -0.75 76.14 C-1.61 76.16 -2.48 76.18 -3.37 76.2 C-5.47 76.11 -5.47 76.11 -7.47 75.11 C-7.47 50.69 -7.47 26.27 -7.47 1.11 C-4.64 0.17 -2.93 -0.01 0 0 Z " fill="#113F6C" transform="translate(544.471435546875,633.886474609375)"/>
<path d="M0 0 C1.35 0 1.35 0 2.73 0 C3.7 0.01 4.67 0.01 5.67 0.02 C7.16 0.02 7.16 0.02 8.68 0.02 C11.86 0.03 15.04 0.04 18.22 0.05 C20.37 0.06 22.52 0.06 24.68 0.06 C29.96 0.08 35.25 0.09 40.53 0.11 C40.53 3.08 40.53 6.05 40.53 9.11 C27.99 9.11 15.45 9.11 2.53 9.11 C2.86 9.77 3.19 10.43 3.53 11.11 C3.61 12.71 3.64 14.31 3.63 15.9 C3.62 16.75 3.62 17.6 3.62 18.47 C3.6 20.09 3.6 20.09 3.59 21.74 C3.56 26.87 3.56 26.87 3.53 32.11 C15.08 32.11 26.63 32.11 38.53 32.11 C38.2 34.75 37.87 37.39 37.53 40.11 C26.31 40.44 15.09 40.77 3.53 41.11 C3.53 50.02 3.53 58.93 3.53 68.11 C7.73 68.1 7.73 68.1 12.02 68.08 C14.73 68.07 17.43 68.06 20.14 68.06 C22.02 68.05 23.91 68.05 25.79 68.04 C28.49 68.03 31.2 68.02 33.9 68.02 C34.75 68.01 35.6 68.01 36.47 68 C38.49 68 40.51 68.05 42.53 68.11 C43.53 69.11 43.53 69.11 43.59 72.68 C43.57 73.81 43.55 74.94 43.53 76.11 C36.59 76.16 29.65 76.2 22.7 76.22 C20.34 76.23 17.98 76.25 15.61 76.26 C12.22 76.29 8.83 76.3 5.44 76.31 C4.38 76.32 3.32 76.33 2.23 76.34 C1.25 76.34 0.26 76.34 -0.75 76.34 C-2.05 76.35 -2.05 76.35 -3.37 76.35 C-5.47 76.11 -5.47 76.11 -7.47 74.11 C-7.71 71.1 -7.71 71.1 -7.7 67.19 C-7.7 66.47 -7.7 65.76 -7.7 65.03 C-7.7 62.67 -7.68 60.31 -7.67 57.95 C-7.66 56.32 -7.66 54.68 -7.66 53.05 C-7.65 48.74 -7.63 44.44 -7.61 40.14 C-7.59 35.75 -7.58 31.36 -7.57 26.97 C-7.55 18.35 -7.51 9.73 -7.47 1.11 C-4.64 0.17 -2.93 -0.01 0 0 Z M1.53 11.11 C1.53 17.05 1.53 22.99 1.53 29.11 C1.86 29.11 2.19 29.11 2.53 29.11 C2.53 23.17 2.53 17.23 2.53 11.11 C2.2 11.11 1.87 11.11 1.53 11.11 Z M1.53 42.11 C1.53 49.37 1.53 56.63 1.53 64.11 C1.86 64.11 2.19 64.11 2.53 64.11 C2.53 56.85 2.53 49.59 2.53 42.11 C2.2 42.11 1.87 42.11 1.53 42.11 Z " fill="#13406C" transform="translate(95.471435546875,633.886474609375)"/>
<path d="M0 0 C4.8 -0.12 9.6 -0.21 14.4 -0.27 C16.03 -0.3 17.66 -0.33 19.29 -0.38 C37.06 -0.84 37.06 -0.84 45 5 C50.37 10.23 53.06 17.75 53.31 25.19 C53.2 32.56 49.86 39.09 44.81 44.39 C38.11 50.35 30 50.64 21.44 50.75 C19.78 50.79 19.78 50.79 18.09 50.84 C15.39 50.91 12.7 50.96 10 51 C10.33 51.66 10.66 52.32 11 53 C11.08 54.67 11.11 56.34 11.1 58.01 C11.09 58.99 11.09 59.98 11.09 61 C11.08 62.03 11.07 63.06 11.06 64.12 C11.06 65.17 11.05 66.21 11.05 67.28 C11.04 69.85 11.02 72.43 11 75 C7.7 75 4.4 75 1 75 C-0.48 72.04 -0.12 69.38 -0.11 66.07 C-0.11 65.36 -0.11 64.65 -0.11 63.91 C-0.11 61.55 -0.11 59.2 -0.1 56.84 C-0.1 55.2 -0.09 53.57 -0.09 51.93 C-0.09 47.63 -0.08 43.33 -0.07 39.02 C-0.06 34.63 -0.05 30.24 -0.05 25.85 C-0.04 17.23 -0.02 8.62 0 0 Z M9 8 C9 10.31 9 12.62 9 15 C9.33 15 9.66 15 10 15 C10.33 23.91 10.66 32.82 11 42 C15.76 42.09 15.76 42.09 20.62 42.19 C21.61 42.21 22.6 42.24 23.62 42.27 C30.02 42.33 34.16 41.29 39.25 37.19 C42.91 32.61 43.59 27.73 43 22 C41.42 17.28 39 13.02 34.97 9.96 C27.03 6.08 17.46 6.67 9 8 Z M9 16 C10 20 10 20 10 20 Z M9 23 C10 27 10 27 10 27 Z M9 30 C10 32 10 32 10 32 Z M9 33 C9 34.98 9 36.96 9 39 C9.33 39 9.66 39 10 39 C10 37.02 10 35.04 10 33 C9.67 33 9.34 33 9 33 Z M9 53 C10 57 10 57 10 57 Z " fill="#15436F" transform="translate(163,635)"/>
<path d="M0 0 C1.12 0 2.24 0 3.4 0 C4.61 0.01 5.83 0.01 7.08 0.02 C8.32 0.02 9.56 0.02 10.84 0.02 C14.13 0.02 17.43 0.03 20.73 0.04 C24.09 0.06 27.46 0.06 30.82 0.06 C37.43 0.08 44.03 0.09 50.63 0.11 C52.13 3.1 51.75 5.8 51.75 9.13 C51.75 9.86 51.75 10.58 51.75 11.32 C51.75 13.71 51.74 16.1 51.73 18.5 C51.73 20.15 51.73 21.81 51.73 23.47 C51.72 27.83 51.71 32.19 51.7 36.55 C51.69 41.01 51.69 45.46 51.68 49.91 C51.67 58.64 51.65 67.38 51.63 76.11 C50.15 76 48.67 75.87 47.19 75.74 C46.37 75.67 45.55 75.6 44.7 75.53 C44.02 75.39 43.33 75.25 42.63 75.11 C41.26 72.37 41.51 70.18 41.52 67.1 C41.52 65.84 41.52 64.58 41.52 63.28 C41.52 61.9 41.53 60.52 41.53 59.14 C41.54 57.73 41.54 56.32 41.54 54.91 C41.54 51.2 41.55 47.48 41.56 43.77 C41.58 39.32 41.58 34.87 41.59 30.41 C41.6 23.65 41.61 16.88 41.63 10.11 C28.76 10.11 15.89 10.11 2.63 10.11 C2.3 31.56 1.97 53.01 1.63 75.11 C-1.01 75.11 -3.65 75.11 -6.37 75.11 C-6.37 74.27 -6.36 73.44 -6.36 72.57 C-6.34 64.66 -6.33 56.74 -6.32 48.83 C-6.31 44.76 -6.3 40.69 -6.29 36.62 C-6.28 32.69 -6.28 28.76 -6.27 24.83 C-6.27 23.33 -6.27 21.84 -6.26 20.34 C-6.25 18.24 -6.25 16.14 -6.25 14.04 C-6.25 12.84 -6.25 11.65 -6.25 10.42 C-6.36 7.23 -6.77 4.24 -7.37 1.11 C-4.77 -0.18 -2.9 -0.01 0 0 Z " fill="#0F406E" transform="translate(7.36767578125,633.886474609375)"/>
<path d="M0 0 C4.8 -0.12 9.6 -0.21 14.4 -0.27 C16.03 -0.3 17.66 -0.33 19.29 -0.38 C29.71 -0.65 38.48 -0.73 46.75 6.54 C48 8 48 8 48 10 C48.66 10 49.32 10 50 10 C53.91 17.01 54.02 24.51 52.57 32.34 C50.65 38.37 46.59 43.79 41.19 47.11 C34.66 50.47 28.65 50.47 21.44 50.25 C17.66 50.17 13.89 50.09 10 50 C10 58.25 10 66.5 10 75 C7.03 75 4.06 75 1 75 C-0.48 72.04 -0.12 69.38 -0.11 66.07 C-0.11 65.36 -0.11 64.65 -0.11 63.91 C-0.11 61.55 -0.11 59.2 -0.1 56.84 C-0.1 55.2 -0.09 53.57 -0.09 51.93 C-0.09 47.63 -0.08 43.33 -0.07 39.02 C-0.06 34.63 -0.05 30.24 -0.05 25.85 C-0.04 17.23 -0.02 8.62 0 0 Z M10 8 C9.98 12.52 9.96 17.04 9.95 21.56 C9.94 23.1 9.93 24.64 9.92 26.18 C9.91 28.39 9.91 30.6 9.9 32.8 C9.9 33.49 9.89 34.18 9.89 34.89 C9.84 38.57 9.84 38.57 11 42 C14.21 42.09 17.42 42.14 20.62 42.19 C21.53 42.21 22.43 42.24 23.36 42.26 C29.48 42.33 33.89 41.77 38.64 37.54 C42.86 32.23 43.46 28.75 43 22 C41.3 16.81 39.16 13.54 35 10 C34.01 9.67 33.02 9.34 32 9 C31.01 9.5 31.01 9.5 30 10 C30 9.34 30 8.68 30 8 C27.98 7.8 25.96 7.62 23.94 7.44 C22.81 7.33 21.69 7.23 20.53 7.12 C16.88 7 13.6 7.44 10 8 Z " fill="#0C3B68" transform="translate(461,635)"/>
<path d="M0 0 C0.66 0.33 1.32 0.66 2 1 C2 1.66 2 2.32 2 3 C2.66 3.33 3.32 3.66 4 4 C4 4.99 4 5.98 4 7 C4.66 7.33 5.32 7.66 6 8 C5.67 8.66 5.34 9.32 5 10 C5.66 10 6.32 10 7 10 C7.18 10.86 7.18 10.86 7.37 11.75 C8.22 14.78 9.67 17.34 11.16 20.1 C12 22 12 22 12 25 C12.66 25.66 13.32 26.32 14 27 C14 28.32 14 29.64 14 31 C14.66 31.33 15.32 31.66 16 32 C16 32.66 16 33.32 16 34 C16.66 34.66 17.32 35.32 18 36 C17.5 36.99 17.5 36.99 17 38 C17.99 38.5 17.99 38.5 19 39 C22 45.35 22 45.35 22 48 C22.66 48.66 23.32 49.32 24 50 C24 51.32 24 52.64 24 54 C24.99 54.5 24.99 54.5 26 55 C26.33 56.67 26.67 58.33 27 60 C27.99 60.5 27.99 60.5 29 61 C31 66.22 31 66.22 31 69 C31.66 69 32.32 69 33 69 C33.62 70.81 33.62 70.81 34 73 C33.34 73.99 32.68 74.98 32 76 C28.81 75.73 25.96 75.25 23 74 C20.08 70.44 19.1 66.4 18 62 C0.67 61.5 0.67 61.5 -17 61 C-17.33 60.34 -17.66 59.68 -18 59 C-18.15 60.04 -18.15 60.04 -18.31 61.11 C-19.12 64.49 -20.47 67.22 -22.06 70.31 C-22.88 71.92 -22.88 71.92 -23.72 73.55 C-24.14 74.36 -24.57 75.17 -25 76 C-27.64 76 -30.28 76 -33 76 C-32.43 70.35 -30.31 65.82 -27.94 60.75 C-27.11 58.94 -26.28 57.13 -25.45 55.32 C-25.03 54.41 -24.62 53.51 -24.19 52.58 C-22.52 48.96 -20.88 45.33 -19.25 41.69 C-18.94 41 -18.63 40.31 -18.32 39.6 C-16.02 34.44 -13.84 29.23 -11.68 24.02 C-11.39 23.31 -11.1 22.61 -10.8 21.88 C-9.32 18.33 -7.85 14.76 -6.39 11.2 C-5.85 9.88 -5.3 8.56 -4.76 7.25 C-4.27 6.07 -3.79 4.89 -3.29 3.67 C-2 1 -2 1 0 0 Z M0 21 C0 21.66 0 22.32 0 23 C-0.99 23 -1.98 23 -3 23 C-3.23 23.58 -3.46 24.16 -3.7 24.76 C-11 43 -11 43 -12.12 45.49 C-13.28 48.34 -13.28 48.34 -13 53 C-4.09 52.67 4.82 52.34 14 52 C10.89 44.18 10.89 44.18 7.64 36.43 C7.25 35.51 6.85 34.6 6.45 33.66 C6.05 32.74 5.66 31.82 5.25 30.88 C4.84 29.92 4.43 28.96 4 27.98 C3 25.65 2 23.33 1 21 C0.67 21 0.34 21 0 21 Z " fill="#194571" transform="translate(680,634)"/>
<path d="M0 0 C0.7 0 1.41 0.01 2.13 0.01 C2.83 0.01 3.53 0 4.26 0 C9.5 0.01 9.5 0.01 10.63 1.14 C10.72 3.48 10.75 5.79 10.74 8.14 C10.74 8.87 10.74 9.6 10.74 10.35 C10.74 12.78 10.73 15.21 10.73 17.64 C10.72 19.32 10.72 21 10.72 22.68 C10.72 27.11 10.71 31.54 10.7 35.97 C10.69 40.49 10.68 45.01 10.68 49.53 C10.67 58.4 10.65 67.27 10.63 76.14 C5.35 76.14 0.07 76.14 -5.37 76.14 C-5.52 69.15 -5.66 62.17 -5.8 55.18 C-5.85 52.82 -5.89 50.45 -5.94 48.09 C-6.2 35.72 -6.42 23.35 -6.46 10.98 C-6.47 10 -6.48 9.02 -6.48 8.01 C-6.49 7.11 -6.49 6.22 -6.49 5.3 C-6.49 4.52 -6.49 3.73 -6.49 2.93 C-6.22 -1.02 -3.28 0.01 0 0 Z " fill="#0E3E6B" transform="translate(1008.37109375,634.86328125)"/>
<path d="M0 0 C0 25.08 0 50.16 0 76 C-2.97 75.67 -5.94 75.34 -9 75 C-10.47 72.06 -10.12 69.45 -10.11 66.16 C-10.11 65.11 -10.11 65.11 -10.11 64.03 C-10.11 61.71 -10.11 59.38 -10.1 57.05 C-10.1 55.44 -10.09 53.83 -10.09 52.22 C-10.09 47.98 -10.08 43.73 -10.07 39.49 C-10.06 35.16 -10.05 30.83 -10.05 26.5 C-10.04 18 -10.02 9.5 -10 1 C-8 0 -8 0 0 0 Z " fill="#093B6A" transform="translate(623,634)"/>
<path d="M0 0 C0.76 4.73 1.12 9.25 1.11 14.04 C1.11 14.7 1.11 15.37 1.11 16.05 C1.11 18.22 1.11 20.39 1.1 22.56 C1.1 24.07 1.09 25.59 1.09 27.1 C1.09 31.07 1.08 35.04 1.07 39 C1.06 43.06 1.05 47.11 1.05 51.17 C1.04 59.11 1.02 67.06 1 75 C-6.75 76.12 -6.75 76.12 -9 75 C-9 50.58 -9 26.16 -9 1 C-5.8 -0.07 -3.34 -0.07 0 0 Z " fill="#1A4873" transform="translate(249,634)"/>
<path d="M0 0 C198.66 0.33 397.32 0.66 602 1 C602 1.33 602 1.66 602 2 C403.01 2.33 204.02 2.66 -1 3 C-0.67 2.01 -0.34 1.02 0 0 Z " fill="#00123E" transform="translate(337,514)"/>
<path d="M0 0 C6.67 -0.16 12.89 0.4 19.47 1.46 C20.43 1.61 21.39 1.76 22.38 1.92 C24.4 2.24 26.41 2.56 28.42 2.88 C31.52 3.38 34.61 3.86 37.71 4.34 C39.67 4.65 41.63 4.96 43.59 5.27 C44.52 5.42 45.45 5.56 46.41 5.71 C47.26 5.85 48.11 5.99 48.99 6.13 C49.74 6.25 50.49 6.37 51.27 6.49 C51.84 6.66 52.41 6.83 53 7 C53.5 7.99 53.5 7.99 54 9 C41.41 8.57 29.27 7.14 16.88 4.94 C15.22 4.65 13.57 4.37 11.92 4.08 C7.94 3.4 3.97 2.7 0 2 C0 1.34 0 0.68 0 0 Z " fill="#28466D" transform="translate(573,340)"/>
<path d="M0 0 C4.61 0.67 9.22 1.34 13.82 2.03 C15.39 2.26 16.96 2.49 18.52 2.71 C20.78 3.04 23.04 3.37 25.29 3.71 C25.99 3.81 26.69 3.91 27.4 4.01 C31.17 4.58 34.58 5.28 38 7 C38.5 7.99 38.5 7.99 39 9 C29.3 7.83 19.64 6.55 10 5 C10 4.34 10 3.68 10 3 C6.7 2.67 3.4 2.34 0 2 C0 1.34 0 0.68 0 0 Z " fill="#27446B" transform="translate(829,379)"/>
<path d="M0 0 C0.33 0 0.66 0 1 0 C1 24.75 1 49.5 1 75 C0.67 75 0.34 75 0 75 C0 50.25 0 25.5 0 0 Z " fill="#F9FCFD" transform="translate(1020,636)"/>
<path d="M0 0 C0.33 0 0.66 0 1 0 C1 21.45 1 42.9 1 65 C0.67 65 0.34 65 0 65 C0 43.55 0 22.1 0 0 Z " fill="#F9FCFD" transform="translate(10,644)"/>
<path d="M0 0 C0.33 0 0.66 0 1 0 C1 20.13 1 40.26 1 61 C0.67 61 0.34 61 0 61 C0 40.87 0 20.74 0 0 Z " fill="#093B6A" transform="translate(0,641)"/>
<path d="M0 0 C0.33 0 0.66 0 1 0 C1 18.81 1 37.62 1 57 C0.67 57 0.34 57 0 57 C0 38.19 0 19.38 0 0 Z " fill="#F9FCFD" transform="translate(250,651)"/>
<path d="M0 0 C7.61 -0.26 17.07 -0.47 24 3 C24 3.66 24 4.32 24 5 C15.87 4.51 7.98 3.65 0 2 C0 1.34 0 0.68 0 0 Z " fill="#264067" transform="translate(573,340)"/>
<path d="M0 0 C0.85 0.05 1.7 0.1 2.57 0.15 C3.45 0.2 4.33 0.26 5.24 0.32 C6.13 0.37 7.02 0.42 7.94 0.47 C10.15 0.6 12.35 0.74 14.55 0.88 C14.22 1.54 13.89 2.2 13.55 2.88 C6.29 2.88 -0.97 2.88 -8.45 2.88 C-6.65 -0.71 -3.56 -0.21 0 0 Z " fill="#00123E" transform="translate(1161.44921875,664.12109375)"/>
<path d="M0 0 C3.51 1.9 5.94 3.54 8 7 C8 7.99 8 8.98 8 10 C8.99 10.33 9.98 10.66 11 11 C11 11.66 11 12.32 11 13 C11.66 13.33 12.32 13.66 13 14 C14.02 14.98 15.02 15.98 16 17 C15.34 17.66 14.68 18.32 14 19 C0 3.65 0 3.65 0 0 Z " fill="#0E204A" transform="translate(1079,671)"/>
<path d="M0 0 C0.33 0 0.66 0 1 0 C1 16.17 1 32.34 1 49 C0.67 49 0.34 49 0 49 C0 32.83 0 16.66 0 0 Z " fill="#F9FCFD" transform="translate(1196,649)"/>
<path d="M0 0 C15.51 0 31.02 0 47 0 C47 0.33 47 0.66 47 1 C31.49 1 15.98 1 0 1 C0 0.67 0 0.34 0 0 Z " fill="#F9FCFD" transform="translate(849,517)"/>
<path d="M0 0 C2.9 0.14 5.79 0.29 8.69 0.44 C9.5 0.48 10.32 0.52 11.16 0.56 C15.2 0.77 19.06 1.04 23 2 C23 2.66 23 3.32 23 4 C24.32 4.33 25.64 4.66 27 5 C17.88 4.28 8.98 2.66 0 1 C0 0.67 0 0.34 0 0 Z " fill="#07214D" transform="translate(520,332)"/>
<path d="M0 0 C13.86 0 27.72 0 42 0 C42 0.33 42 0.66 42 1 C28.14 1 14.28 1 0 1 C0 0.67 0 0.34 0 0 Z " fill="#F9FCFD" transform="translate(900,517)"/>
<path d="M0 0 C0.66 0.33 1.32 0.66 2 1 C0.02 1.99 0.02 1.99 -2 3 C-1.34 2.01 -0.68 1.02 0 0 Z M-4 3 C-3.34 3.33 -2.68 3.66 -2 4 C-2 4.66 -2 5.32 -2 6 C-5.05 6.91 -7.6 7.06 -10.77 6.88 C-11.66 6.83 -12.54 6.78 -13.46 6.73 C-14.38 6.68 -15.3 6.62 -16.25 6.56 C-17.19 6.51 -18.12 6.46 -19.09 6.4 C-21.39 6.27 -23.7 6.14 -26 6 C-26 5.67 -26 5.34 -26 5 C-25.44 4.97 -24.88 4.95 -24.3 4.92 C-21.76 4.81 -19.23 4.69 -16.69 4.56 C-15.37 4.5 -15.37 4.5 -14.02 4.44 C-12.75 4.38 -12.75 4.38 -11.45 4.32 C-10.67 4.28 -9.89 4.24 -9.08 4.21 C-6.81 4.06 -6.81 4.06 -4 3 Z " fill="#8B9FB4" transform="translate(201,672)"/>
<path d="M0 0 C7.93 -0.25 15.24 0.29 23 2 C15.17 4.15 7.79 2.6 0 1 C0 0.67 0 0.34 0 0 Z " fill="#0A2955" transform="translate(555,338)"/>
<path d="M0 0 C2 0 2 0 3.56 1.06 C5.64 3.86 5.68 6.59 6 10 C4.35 8.35 2.7 6.7 1 5 C0.01 6.49 0.01 6.49 -1 8 C-1.66 8 -2.32 8 -3 8 C-2.25 2.25 -2.25 2.25 0 0 Z " fill="#1B3159" transform="translate(803,633)"/>
<path d="M0 0 C11.55 0 23.1 0 35 0 C35 0.33 35 0.66 35 1 C23.45 1 11.9 1 0 1 C0 0.67 0 0.34 0 0 Z " fill="#F9FCFD" transform="translate(99,675)"/>
<path d="M0 0 C11.22 0 22.44 0 34 0 C34 0.33 34 0.66 34 1 C22.78 1 11.56 1 0 1 C0 0.67 0 0.34 0 0 Z " fill="#F9FCFD" transform="translate(549,675)"/>
<path d="M0 0 C11.22 0 22.44 0 34 0 C34 0.33 34 0.66 34 1 C22.78 1 11.56 1 0 1 C0 0.67 0 0.34 0 0 Z " fill="#F9FCFD" transform="translate(398,675)"/>
<path d="M0 0 C0.33 0 0.66 0 1 0 C1 10.23 1 20.46 1 31 C0.67 31 0.34 31 0 31 C0 20.77 0 10.54 0 0 Z " fill="#F9FCFD" transform="translate(1149,679)"/>
<path d="M0 0 C1.49 0.99 1.49 0.99 3 2 C3 2.66 3 3.32 3 4 C3.66 4 4.32 4 5 4 C5.99 6.31 6.98 8.62 8 11 C7.01 11 6.02 11 5 11 C4.16 9.54 3.33 8.09 2.5 6.62 C1.8 5.41 1.8 5.41 1.09 4.16 C0 2 0 2 0 0 Z " fill="#435171" transform="translate(506,641)"/>
<path d="M0 0 C7.26 0 14.52 0 22 0 C22 0.33 22 0.66 22 1 C14.74 1 7.48 1 0 1 C0 0.67 0 0.34 0 0 Z " fill="#F9FCFD" transform="translate(338,517)"/>
<path d="M0 0 C5.94 0 11.88 0 18 0 C18 0.33 18 0.66 18 1 C12.06 1 6.12 1 0 1 C0 0.67 0 0.34 0 0 Z " fill="#CAD1D7" transform="translate(472,686)"/>
<path d="M0 0 C0.33 0 0.66 0 1 0 C1 5.61 1 11.22 1 17 C0.67 17 0.34 17 0 17 C0 11.39 0 5.78 0 0 Z " fill="#F9FCFD" transform="translate(60,661)"/>
<path d="M0 0 C4.95 0 9.9 0 15 0 C15 0.33 15 0.66 15 1 C10.05 1 5.1 1 0 1 C0 0.67 0 0.34 0 0 Z " fill="#C8CFD5" transform="translate(177,686)"/>
<path d="M0 0 C0.33 0 0.66 0 1 0 C1 3.96 1 7.92 1 12 C0.67 12 0.34 12 0 12 C0 8.04 0 4.08 0 0 Z " fill="#C8CFD5" transform="translate(982,636)"/>
<path d="M0 0 C0.33 0 0.66 0 1 0 C1 2.97 1 5.94 1 9 C0.67 9 0.34 9 0 9 C0 6.03 0 3.06 0 0 Z " fill="#F9FCFD" transform="translate(361,667)"/>
<path d="M0 0 C0.33 0 0.66 0 1 0 C1 2.64 1 5.28 1 8 C0.67 8 0.34 8 0 8 C0 5.36 0 2.72 0 0 Z " fill="#F9FCFD" transform="translate(589,702)"/>
<path d="M0 0 C0.33 0 0.66 0 1 0 C1 2.64 1 5.28 1 8 C0.67 8 0.34 8 0 8 C0 5.36 0 2.72 0 0 Z " fill="#F9FCFD" transform="translate(134,667)"/>
<path d="M0 0 C1.98 0 3.96 0 6 0 C6 0.33 6 0.66 6 1 C4.02 1 2.04 1 0 1 C0 0.67 0 0.34 0 0 Z " fill="#C8CFD5" transform="translate(478,643)"/>
<path d="M0 0 C0.33 0 0.66 0 1 0 C1 1.98 1 3.96 1 6 C0.67 6 0.34 6 0 6 C0 4.02 0 2.04 0 0 Z " fill="#F9FCFD" transform="translate(137,636)"/>
<path d="M0 0 C0.33 0 0.66 0 1 0 C1 1.98 1 3.96 1 6 C0.67 6 0.34 6 0 6 C0 4.02 0 2.04 0 0 Z " fill="#F9FCFD" transform="translate(250,635)"/>
<path d="M0 0 C0.33 0 0.66 0 1 0 C1 1.65 1 3.3 1 5 C0.67 5 0.34 5 0 5 C0 3.35 0 1.7 0 0 Z " fill="#F9FCFD" transform="translate(60,655)"/>
<path d="M0 0 C1.65 0 3.3 0 5 0 C5 0.33 5 0.66 5 1 C3.35 1 1.7 1 0 1 C0 0.67 0 0.34 0 0 Z " fill="#C8CFD5" transform="translate(179,643)"/>
<path d="M0 0 C1 4 1 4 1 4 Z " fill="#F9FCFD" transform="translate(60,650)"/>
<path d="" fill="#062D5B" transform="translate(0,0)"/>
<path d="" fill="#F9FCFD" transform="translate(0,0)"/>
<path d="" fill="#F9FCFD" transform="translate(0,0)"/>
<path d="" fill="#F9FCFD" transform="translate(0,0)"/>
<path d="" fill="#E0E5E9" transform="translate(0,0)"/>
<path d="M0 0 C2 1 2 1 2 1 Z " fill="#F9FCFD" transform="translate(325,703)"/>
<path d="M0 0 C2 1 2 1 2 1 Z " fill="#C8CFD5" transform="translate(331,702)"/>
<path d="M0 0 C2 1 2 1 2 1 Z " fill="#C8CFD5" transform="translate(798,699)"/>
<path d="" fill="#F9FCFD" transform="translate(0,0)"/>
<path d="M0 0 C2 1 2 1 2 1 Z " fill="#F9FCFD" transform="translate(495,685)"/>
<path d="" fill="#F9FCFD" transform="translate(0,0)"/>
<path d="" fill="#F9FCFD" transform="translate(0,0)"/>
<path d="" fill="#F9FCFD" transform="translate(0,0)"/>
<path d="" fill="#F9FCFD" transform="translate(0,0)"/>
<path d="M0 0 C2 1 2 1 2 1 Z " fill="#00123E" transform="translate(942,516)"/>
<path d="M0 0 C2 1 2 1 2 1 Z " fill="#F9FCFD" transform="translate(495,253)"/>
<path d="M0 0 C2 1 2 1 2 1 Z " fill="#F9FCFD" transform="translate(533,241)"/>
<path d="M0 0 C2 1 2 1 2 1 Z " fill="#F9FCFD" transform="translate(542,238)"/>
<path d="M0 0 C2 1 2 1 2 1 Z " fill="#F9FCFD" transform="translate(570,229)"/>
<path d="M0 0 C2 1 2 1 2 1 Z " fill="#F9FCFD" transform="translate(573,228)"/>
<path d="M0 0 C2 1 2 1 2 1 Z " fill="#F9FCFD" transform="translate(598,220)"/>
<path d="M0 0 C2 1 2 1 2 1 Z " fill="#F9FCFD" transform="translate(611,216)"/>
<path d="M0 0 C2 1 2 1 2 1 Z " fill="#C8CFD5" transform="translate(630,210)"/>
<path d="M0 0 C2 1 2 1 2 1 Z " fill="#F9FCFD" transform="translate(646,205)"/>
<path d="M0 0 C2 1 2 1 2 1 Z " fill="#F9FCFD" transform="translate(659,201)"/>
<path d="M0 0 C2 1 2 1 2 1 Z " fill="#F9FCFD" transform="translate(668,198)"/>
<path d="M0 0 C2 1 2 1 2 1 Z " fill="#F9FCFD" transform="translate(677,195)"/>
<path d="" fill="#C8CFD5" transform="translate(0,0)"/>
<path d="" fill="#F9FCFD" transform="translate(0,0)"/>
<path d="" fill="#F9FCFD" transform="translate(0,0)"/>
<path d="" fill="#C8CFD5" transform="translate(0,0)"/>
<path d="" fill="#F9FCFD" transform="translate(0,0)"/>
<path d="" fill="#F9FCFD" transform="translate(0,0)"/>
<path d="" fill="#F9FCFD" transform="translate(0,0)"/>
<path d="" fill="#F9FCFD" transform="translate(0,0)"/>
<path d="" fill="#F9FCFD" transform="translate(0,0)"/>
<path d="" fill="#F9FCFD" transform="translate(0,0)"/>
<path d="" fill="#C8CFD5" transform="translate(0,0)"/>
<path d="" fill="#F9FCFD" transform="translate(0,0)"/>
<path d="" fill="#C8CFD5" transform="translate(0,0)"/>
<path d="" fill="#F9FCFD" transform="translate(0,0)"/>
<path d="" fill="#C8CFD5" transform="translate(0,0)"/>
<path d="" fill="#F9FCFD" transform="translate(0,0)"/>
<path d="" fill="#F9FCFD" transform="translate(0,0)"/>
<path d="" fill="#C8CFD5" transform="translate(0,0)"/>
<path d="" fill="#C8CFD5" transform="translate(0,0)"/>
<path d="" fill="#C8CFD5" transform="translate(0,0)"/>
<path d="" fill="#C8CFD5" transform="translate(0,0)"/>
<path d="" fill="#F9FCFD" transform="translate(0,0)"/>
<path d="" fill="#F9FCFD" transform="translate(0,0)"/>
<path d="" fill="#F9FCFD" transform="translate(0,0)"/>
<path d="" fill="#F9FCFD" transform="translate(0,0)"/>
<path d="" fill="#F9FCFD" transform="translate(0,0)"/>
<path d="" fill="#F9FCFD" transform="translate(0,0)"/>
<path d="" fill="#C8CFD5" transform="translate(0,0)"/>
<path d="" fill="#F9FCFD" transform="translate(0,0)"/>
<path d="" fill="#F9FCFD" transform="translate(0,0)"/>
<path d="" fill="#C8CFD5" transform="translate(0,0)"/>
<path d="" fill="#F9FCFD" transform="translate(0,0)"/>
<path d="" fill="#F9FCFD" transform="translate(0,0)"/>
<path d="" fill="#F9FCFD" transform="translate(0,0)"/>
<path d="" fill="#F9FCFD" transform="translate(0,0)"/>
<path d="" fill="#F9FCFD" transform="translate(0,0)"/>
<path d="" fill="#C8CFD5" transform="translate(0,0)"/>
<path d="" fill="#F9FCFD" transform="translate(0,0)"/>
<path d="" fill="#C8CFD5" transform="translate(0,0)"/>
<path d="" fill="#F9FCFD" transform="translate(0,0)"/>
<path d="" fill="#F9FCFD" transform="translate(0,0)"/>
<path d="" fill="#F9FCFD" transform="translate(0,0)"/>
<path d="" fill="#F9FCFD" transform="translate(0,0)"/>
<path d="" fill="#F9FCFD" transform="translate(0,0)"/>
<path d="" fill="#F9FCFD" transform="translate(0,0)"/>
<path d="" fill="#F9FCFD" transform="translate(0,0)"/>
<path d="" fill="#C8CFD5" transform="translate(0,0)"/>
<path d="" fill="#F9FCFD" transform="translate(0,0)"/>
<path d="" fill="#F9FCFD" transform="translate(0,0)"/>
<path d="" fill="#F9FCFD" transform="translate(0,0)"/>
<path d="" fill="#F9FCFD" transform="translate(0,0)"/>
<path d="" fill="#F9FCFD" transform="translate(0,0)"/>
<path d="" fill="#F9FCFD" transform="translate(0,0)"/>
<path d="" fill="#F9FCFD" transform="translate(0,0)"/>
<path d="" fill="#F9FCFD" transform="translate(0,0)"/>
<path d="" fill="#F9FCFD" transform="translate(0,0)"/>
<path d="" fill="#F9FCFD" transform="translate(0,0)"/>
<path d="" fill="#F9FCFD" transform="translate(0,0)"/>
<path d="" fill="#F9FCFD" transform="translate(0,0)"/>
<path d="" fill="#F9FCFD" transform="translate(0,0)"/>
<path d="" fill="#F9FCFD" transform="translate(0,0)"/>
<path d="" fill="#C8CFD5" transform="translate(0,0)"/>
<path d="" fill="#C8CFD5" transform="translate(0,0)"/>
<path d="" fill="#C8CFD5" transform="translate(0,0)"/>
<path d="" fill="#F9FCFD" transform="translate(0,0)"/>
<path d="" fill="#F9FCFD" transform="translate(0,0)"/>
<path d="" fill="#C8CFD5" transform="translate(0,0)"/>
<path d="" fill="#F9FCFD" transform="translate(0,0)"/>
<path d="" fill="#F9FCFD" transform="translate(0,0)"/>
<path d="" fill="#F9FCFD" transform="translate(0,0)"/>
<path d="" fill="#F9FCFD" transform="translate(0,0)"/>
<path d="" fill="#F9FCFD" transform="translate(0,0)"/>
<path d="" fill="#F9FCFD" transform="translate(0,0)"/>
<path d="" fill="#F9FCFD" transform="translate(0,0)"/>
<path d="" fill="#F9FCFD" transform="translate(0,0)"/>
<path d="" fill="#C8CFD5" transform="translate(0,0)"/>
<path d="" fill="#F9FCFD" transform="translate(0,0)"/>
<path d="" fill="#F9FCFD" transform="translate(0,0)"/>
<path d="" fill="#C8CFD5" transform="translate(0,0)"/>
<path d="" fill="#F9FCFD" transform="translate(0,0)"/>
<path d="" fill="#F9FCFD" transform="translate(0,0)"/>
<path d="" fill="#F9FCFD" transform="translate(0,0)"/>
<path d="" fill="#F9FCFD" transform="translate(0,0)"/>
<path d="" fill="#F9FCFD" transform="translate(0,0)"/>
<path d="" fill="#F9FCFD" transform="translate(0,0)"/>
<path d="" fill="#F9FCFD" transform="translate(0,0)"/>
<path d="" fill="#F9FCFD" transform="translate(0,0)"/>
<path d="" fill="#F9FCFD" transform="translate(0,0)"/>
<path d="" fill="#F9FCFD" transform="translate(0,0)"/>
<path d="" fill="#F9FCFD" transform="translate(0,0)"/>
<path d="" fill="#F9FCFD" transform="translate(0,0)"/>
<path d="" fill="#C8CFD5" transform="translate(0,0)"/>
<path d="" fill="#C8CFD5" transform="translate(0,0)"/>
<path d="" fill="#C8CFD5" transform="translate(0,0)"/>
<path d="" fill="#C8CFD5" transform="translate(0,0)"/>
<path d="" fill="#F9FCFD" transform="translate(0,0)"/>
<path d="" fill="#C8CFD5" transform="translate(0,0)"/>
<path d="" fill="#F9FCFD" transform="translate(0,0)"/>
<path d="" fill="#C8CFD5" transform="translate(0,0)"/>
<path d="" fill="#F9FCFD" transform="translate(0,0)"/>
<path d="" fill="#F9FCFD" transform="translate(0,0)"/>
<path d="" fill="#F9FCFD" transform="translate(0,0)"/>
<path d="" fill="#F9FCFD" transform="translate(0,0)"/>
<path d="" fill="#F9FCFD" transform="translate(0,0)"/>
<path d="" fill="#F9FCFD" transform="translate(0,0)"/>
<path d="" fill="#F9FCFD" transform="translate(0,0)"/>
<path d="" fill="#F9FCFD" transform="translate(0,0)"/>
<path d="" fill="#F9FCFD" transform="translate(0,0)"/>
<path d="" fill="#C8CFD5" transform="translate(0,0)"/>
<path d="" fill="#F9FCFD" transform="translate(0,0)"/>
<path d="" fill="#F9FCFD" transform="translate(0,0)"/>
<path d="" fill="#F9FCFD" transform="translate(0,0)"/>
<path d="" fill="#F9FCFD" transform="translate(0,0)"/>
<path d="" fill="#F9FCFD" transform="translate(0,0)"/>
</svg>
